PathFileType	3	(X/Y/Z)	walking_2__view1_aligned.trc
DataRate	CameraRate	NumFrames	NumMarkers	Units	OrigDataRate	OrigDataStartFrame	OrigNumFrames
100.0	100.0	14	19	mm	100.0	4930	6300
Frame#	Time	pelvis			neck			head			hip_left			hip_right			knee_left			knee_right			ankle_left			ankle_right			heel_left			heel_right			toe_left			toe_right			shoulder_left			shoulder_right			elbow_left			elbow_right			wrist_left			wrist_right			
		X1	Y1	Z1	X2	Y2	Z2	X3	Y3	Z3	X4	Y4	Z4	X5	Y5	Z5	X6	Y6	Z6	X7	Y7	Z7	X8	Y8	Z8	X9	Y9	Z9	X10	Y10	Z10	X11	Y11	Z11	X12	Y12	Z12	X13	Y13	Z13	X14	Y14	Z14	X15	Y15	Z15	X16	Y16	Z16	X17	Y17	Z17	X18	Y18	Z18	X19	Y19	Z19	
4930	49.29000	91.130568	951.523995	106.213974	41.977977	1497.051510	225.579332	31.437724	1566.823503	380.012713	168.247225	957.831487	117.789765	14.013912	945.216502	94.638184	140.773510	522.173280	196.895602	-61.257464	538.237062	251.705780	131.016765	113.660598	115.895743	-75.302267	234.679347	28.027035	131.884975	65.643763	79.957785	-68.978499	216.536913	-19.438209	112.601153	56.540674	299.970731	-96.672565	98.470660	124.227684	230.323521	1464.876917	210.132894	-127.633181	1431.197402	155.758596	305.561264	1187.690144	144.935090	-161.643735	1140.236169	112.240480	336.736089	928.334099	178.731330	-170.655906	907.875561	228.277166
4931	49.30000	92.285575	952.022304	104.896002	42.851974	1497.591072	224.710219	31.543171	1568.008194	378.885838	169.402375	958.326745	116.528508	15.168848	945.717875	93.263436	141.891183	521.644698	189.295721	-59.795827	540.201777	256.199591	131.759721	113.449345	105.023760	-73.749457	233.912043	42.065874	132.517843	65.549407	68.805772	-67.418769	214.723556	-4.441588	113.842046	55.728513	289.064605	-95.794334	101.454541	140.882569	231.361858	1465.160384	211.001185	-126.405119	1431.458477	153.397519	308.288230	1187.807684	149.795392	-159.718126	1140.511093	107.058689	339.271969	929.061091	188.153682	-171.520171	904.720915	218.259710
4932	49.31000	93.440582	952.520613	103.578029	43.725971	1498.130634	223.841105	31.648618	1569.192884	377.758963	170.557525	958.822003	115.267252	16.323785	946.219247	91.888687	143.008857	521.116116	181.695839	-58.334190	542.166492	260.693401	132.502676	113.238091	94.151777	-72.196646	233.144740	56.104713	133.150710	65.455050	57.653760	-65.859039	212.910199	10.555032	115.082939	54.916353	278.158479	-94.916103	104.438422	157.537454	232.400196	1465.443852	211.869476	-125.177058	1431.719551	151.036441	311.015195	1187.925225	154.655693	-157.792516	1140.786018	101.876899	341.807848	929.788082	197.576034	-172.384435	901.566269	208.242254
4933	49.32000	94.595589	953.018923	102.260057	44.599967	1498.670196	222.971992	31.754066	1570.377575	376.632087	171.712676	959.317261	114.005995	17.478721	946.720620	90.513939	144.126530	520.587534	174.095958	-56.872553	544.131207	265.187212	133.245631	113.026837	83.279795	-70.643836	232.377437	70.143551	133.783578	65.360694	46.501747	-64.299310	211.096841	25.551653	116.323832	54.104193	267.252353	-94.037872	107.422302	174.192339	233.438534	1465.727320	212.737768	-123.948997	1431.980626	148.675363	313.742161	1188.042766	159.515995	-155.866907	1141.060942	96.695109	344.343728	930.515074	206.998387	-173.248699	898.411623	198.224797
4934	49.33000	95.750595	953.517232	100.942084	45.473964	1499.209758	222.102878	31.859513	1571.562265	375.505212	172.867826	959.812519	112.744739	18.633657	947.221992	89.139191	145.244204	520.058952	166.496076	-55.410917	546.095922	269.681023	133.988587	112.815583	72.407812	-69.091026	231.610133	84.182390	134.416445	65.266337	35.349734	-62.739580	209.283484	40.548273	117.564725	53.292032	256.346227	-93.159640	110.406183	190.847224	234.476872	1466.010788	213.606059	-122.720935	1432.241701	146.314286	316.469127	1188.160306	164.376297	-153.941297	1141.335867	91.513319	346.879607	931.242065	216.420739	-174.112964	895.256977	188.207341
4935	49.34000	96.905602	954.015541	99.624112	46.347961	1499.749320	221.233765	31.964960	1572.746955	374.378336	174.022976	960.307777	111.483482	19.788594	947.723365	87.764443	146.361877	519.530370	158.896195	-53.949280	548.060636	274.174833	134.731542	112.604330	61.535829	-67.538215	230.842830	98.221229	135.049313	65.171980	24.197722	-61.179850	207.470127	55.544894	118.805617	52.479872	245.440102	-92.281409	113.390063	207.502109	235.515209	1466.294256	214.474350	-121.492874	1432.502776	143.953208	319.196093	1188.277847	169.236599	-152.015688	1141.610791	86.331529	349.415486	931.969056	225.843091	-174.977228	892.102331	178.189885
4936	49.35000	95.845996	953.469708	99.374807	45.158874	1499.487265	221.371863	30.045444	1573.058726	374.255483	173.052792	959.613678	111.110654	18.639530	947.325792	87.638692	145.725405	518.143199	151.576766	-54.408191	548.915236	278.009981	134.239069	111.964917	51.542344	-68.499207	227.333387	113.282294	134.534632	64.578692	13.967605	-62.427888	202.406924	71.680961	118.566096	51.584127	235.777861	-92.397377	114.844673	226.763600	234.308919	1465.965943	216.097349	-122.164996	1432.123205	142.784385	319.635888	1187.745130	174.830344	-152.230358	1141.350684	83.209949	349.463428	932.739648	236.509713	-177.041955	890.581542	170.669347
4937	49.36000	94.786391	952.923876	99.125503	43.969787	1499.225211	221.509961	28.125927	1573.370496	374.132630	172.082608	958.919580	110.737825	17.490466	946.928219	87.512941	145.088933	516.756028	144.257336	-54.867102	549.769836	281.845129	133.746595	111.325505	41.548858	-69.460199	223.823945	128.343360	134.019951	63.985404	3.737489	-63.675926	197.343722	87.817028	118.326575	50.688382	226.115621	-92.513344	116.299283	246.025091	233.102629	1465.637630	217.720348	-122.837119	1431.743635	141.615562	320.075684	1187.212414	180.424088	-152.445028	1141.090577	80.088368	349.511369	933.510239	247.176334	-179.106683	889.060752	163.148809
4938	49.37000	93.726785	952.378043	98.876198	42.780700	1498.963157	221.648059	26.206411	1573.682267	374.009777	171.112423	958.225481	110.364997	16.341402	946.530646	87.387190	144.452461	515.368856	136.937907	-55.326013	550.624435	285.680277	133.254122	110.686092	31.555373	-70.421191	220.314502	143.404426	133.505271	63.392115	-6.492628	-64.923964	192.280520	103.953095	118.087053	49.792638	216.453381	-92.629311	117.753892	265.286582	231.896339	1465.309317	219.343347	-123.509241	1431.364065	140.446738	320.515480	1186.679697	186.017833	-152.659698	1140.830470	76.966788	349.559311	934.280830	257.842955	-181.171410	887.539963	155.628270
4939	49.38000	92.667179	951.832210	98.626894	41.591613	1498.701102	221.786158	24.286895	1573.994037	373.886924	170.142239	957.531382	109.992169	15.192338	946.133073	87.261439	143.815989	513.981685	129.618477	-55.784924	551.479035	289.515425	132.761649	110.046679	21.561888	-71.382183	216.805059	158.465492	132.990590	62.798827	-16.722744	-66.172002	187.217317	120.089162	117.847532	48.896893	206.791140	-92.745279	119.208502	284.548074	230.690049	1464.981004	220.966346	-124.181363	1430.984494	139.277915	320.955276	1186.146980	191.611577	-152.874368	1140.570363	73.845208	349.607252	935.051422	268.509576	-183.236137	886.019174	148.107732
4940	49.39000	91.607573	951.286377	98.377589	40.402526	1498.439048	221.924256	22.367378	1574.305808	373.764071	169.172055	956.837284	109.619340	14.043274	945.735500	87.135689	143.179517	512.594514	122.299048	-56.243834	552.333634	293.350574	132.269175	109.407267	11.568402	-72.343174	213.295617	173.526558	132.475910	62.205539	-26.952861	-67.420040	182.154115	136.225229	117.608010	48.001148	197.128900	-92.861246	120.663112	303.809565	229.483759	1464.652691	222.589345	-124.853486	1430.604924	138.109091	321.395071	1185.614264	197.205322	-153.089038	1140.310256	70.723628	349.655194	935.822013	279.176198	-185.300864	884.498385	140.587194
4941	49.40000	90.547967	950.740545	98.128285	39.213439	1498.176993	222.062354	20.447862	1574.617578	373.641218	168.201871	956.143185	109.246512	12.894210	945.337927	87.009938	142.543046	511.207342	114.979619	-56.702745	553.188234	297.185722	131.776702	108.767854	1.574917	-73.304166	209.786174	188.587624	131.961229	61.612250	-37.182978	-68.668078	177.090913	152.361297	117.368489	47.105404	187.466660	-92.977213	122.117721	323.071056	228.277469	1464.324377	224.212344	-125.525608	1430.225354	136.940268	321.834867	1185.081547	202.799066	-153.303708	1140.050149	67.602048	349.703135	936.592604	289.842819	-187.365592	882.977595	133.066656
4942	49.41000	89.488362	950.194712	97.878980	38.024352	1497.914939	222.200452	18.528346	1574.929349	373.518365	167.231687	955.449087	108.873684	11.745146	944.940354	86.884187	141.906574	509.820171	107.660189	-57.161656	554.042833	301.020870	131.284229	108.128442	-8.418568	-74.265158	206.276731	203.648690	131.446548	61.018962	-47.413094	-69.916116	172.027710	168.497364	117.128967	46.209659	177.804420	-93.093181	123.572331	342.332547	227.071179	1463.996064	225.835343	-126.197730	1429.845783	135.771444	322.274663	1184.548830	208.392810	-153.518378	1139.790042	64.480467	349.751077	937.363196	300.509440	-189.430319	881.456806	125.546118
4943	49.42000	88.428756	949.648879	97.629676	36.835265	1497.652885	222.338550	16.608829	1575.241119	373.395512	166.261503	954.754988	108.500855	10.596082	944.542782	86.758436	141.270102	508.433000	100.340760	-57.620567	554.897433	304.856018	130.791755	107.489029	-18.412054	-75.226150	202.767289	218.709756	130.931868	60.425674	-57.643211	-71.164154	166.964508	184.633431	116.889446	45.313915	168.142179	-93.209148	125.026941	361.594038	225.864888	1463.667751	227.458342	-126.869853	1429.466213	134.602621	322.714458	1184.016113	213.986555	-153.733048	1139.529934	61.358887	349.799018	938.133787	311.176061	-191.495046	879.936017	118.025580
